<?xml version="1.0" encoding="UTF-8"?>
<svg version="1.1" xmlns="http://www.w3.org/2000/svg" width="500" height="500">
<path d="M0 0 C-2.92013139 27.48573674 -22.22741448 53.27738776 -42.80322266 70.51025391 C-59.54792227 83.77407716 -79.11344059 91.80723751 -99.75 96.8125 C-100.55195801 97.00739014 -101.35391602 97.20228027 -102.18017578 97.40307617 C-115.30349041 100.39571948 -128.19252367 101.33005506 -141.59790039 101.26074219 C-144.06356289 101.24999537 -146.52849961 101.26072171 -148.99414062 101.2734375 C-158.52040701 101.28057836 -167.59936076 100.68152414 -177 99 C-181.1721652 87.62136765 -182.3468543 76.57897081 -182.3125 64.5 C-182.32861328 63.36691406 -182.34472656 62.23382813 -182.36132812 61.06640625 C-182.36810253 49.23829516 -180.35442495 36.10441073 -172.1796875 26.96484375 C-163.59787727 19.0392896 -153.549415 15.47690104 -141.90234375 15.74609375 C-130.77000536 16.71998607 -119.73831393 19.66433712 -108.86328125 22.1328125 C-100.35268666 24.04317853 -93.46858709 24.60084343 -84.98046875 22.4375 C-83 22 -83 22 -80 22 C-82.6387658 30.15618519 -87.59056457 33.80982907 -94.9296875 37.609375 C-99.82126328 39.82489787 -104.85688895 41.47412063 -110 43 C-94.74319615 42.23715981 -82.27098471 33.33788317 -69.8046875 25.30078125 C-59.11783153 18.4326123 -50.23433022 13.12656884 -37 15 C-32.08079065 16.73972038 -27.40669946 18.94025911 -24 23 C-24 23.66 -24 24.32 -24 25 C-19.25547686 21.83698457 -16.61129628 17.74283155 -13.55078125 13.046875 C-13.03902344 12.37140625 -12.52726563 11.6959375 -12 11 C-11.34 11 -10.68 11 -10 11 C-9.5978125 10.12601563 -9.5978125 10.12601563 -9.1875 9.234375 C-7.98519009 6.97213399 -6.66174087 5.19423682 -5 3.25 C-4.484375 2.63640625 -3.96875 2.0228125 -3.4375 1.390625 C-2 0 -2 0 0 0 Z " fill="#1F93C8" transform="translate(349,158)"/>
<path d="M0 0 C0.66 0 1.32 0 2 0 C9.03958316 30.37239507 -5.9861223 67.32380372 -19.88183594 93.84912109 C-21.07024831 96.1351283 -22.22742055 98.43542376 -23.3828125 100.73828125 C-27.31823212 108.50271582 -31.39919619 116.01330482 -36.4375 123.125 C-36.8504834 123.71104004 -37.2634668 124.29708008 -37.68896484 124.90087891 C-39.71556201 127.65574519 -40.67735041 128.89245014 -44 130 C-44.0093457 129.42668945 -44.01869141 128.85337891 -44.02832031 128.26269531 C-44.33725056 113.16145772 -44.65754526 99.29771133 -56 88 C-64.21484976 81.0166268 -72.43344572 79.5254048 -83.01171875 79.75390625 C-92.30751469 80.51944239 -99.35235176 83.99732308 -105.6875 90.81640625 C-112.63204717 99.41028337 -114.59807653 108.26937725 -114.75 119.125 C-114.79447266 120.7028125 -114.79447266 120.7028125 -114.83984375 122.3125 C-114.90973211 124.87507309 -114.96282401 127.43677962 -115 130 C-124.2412263 128.03441721 -130.62229956 115.61352506 -135.67382812 108.07275391 C-147 90.37039764 -147 90.37039764 -147 86 C-147.66 86 -148.32 86 -149 86 C-149 85.34 -149 84.68 -149 84 C-150.10794922 83.58814453 -150.10794922 83.58814453 -151.23828125 83.16796875 C-153.81114766 82.07986825 -155.88996451 80.8858592 -158.1875 79.3125 C-158.96270996 78.78325928 -159.73791992 78.25401855 -160.53662109 77.70874023 C-161.34953613 77.14485596 -162.16245117 76.58097168 -163 76 C-164.25997803 75.13193726 -164.25997803 75.13193726 -165.54541016 74.24633789 C-174.30670164 68.16698903 -182.68155725 61.66987864 -191 55 C-190.67 54.01 -190.34 53.02 -190 52 C-189.13761719 52.38671875 -188.27523437 52.7734375 -187.38671875 53.171875 C-149.41398719 69.58923315 -103.35700959 65.63368486 -65.48388672 51.02978516 C-40.13018173 40.79540253 -17.75774526 25.52930235 -2.0625 2.8125 C-1.381875 1.884375 -0.70125 0.95625 0 0 Z " fill="#114D73" transform="translate(332,205)"/>
<path d="M0 0 C0.66 0.33 1.32 0.66 2 1 C3.23498385 4.94854928 4.0659186 8.9664667 5 13 C10.94 14.485 10.94 14.485 17 16 C16.505 17.485 16.505 17.485 16 19 C13.8203125 19.703125 13.8203125 19.703125 11.125 20.25 C6.6336705 21.43015312 6.6336705 21.43015312 4 25.375 C3.67 26.57125 3.34 27.7675 3 29 C2.608125 29.969375 2.21625 30.93875 1.8125 31.9375 C1.544375 32.618125 1.27625 33.29875 1 34 C-1.41683533 31.58316467 -1.31661715 30.42631614 -1.875 27.125 C-2.49410639 24.37665215 -2.49410639 24.37665215 -4 22 C-7.84333839 19.92365348 -11.73757194 18.88552769 -16 18 C-16 17.34 -16 16.68 -16 16 C-14.56445975 15.49440092 -13.1264798 14.9957251 -11.6875 14.5 C-10.88699219 14.2215625 -10.08648437 13.943125 -9.26171875 13.65625 C-7 13 -7 13 -4 13 C-3.79503906 12.22914063 -3.59007812 11.45828125 -3.37890625 10.6640625 C-3.10949219 9.66117188 -2.84007812 8.65828125 -2.5625 7.625 C-2.29566406 6.62726563 -2.02882813 5.62953125 -1.75390625 4.6015625 C-1 2 -1 2 0 0 Z " fill="#1C8EC6" transform="translate(362,120)"/>
<path d="M0 0 C0.66 0 1.32 0 2 0 C2 0.66 2 1.32 2 2 C1.34 2 0.68 2 0 2 C0 1.34 0 0.68 0 0 Z " fill="#0076BA" transform="translate(318,136)"/>
<path d="M0 0 C0.66 0.66 1.32 1.32 2 2 C1.34 2 0.68 2 0 2 C0 1.34 0 0.68 0 0 Z " fill="#002299" transform="translate(345,200)"/>
</svg>
